# xmcd CD database file
#
# Track frame offsets:
#	150
#	37487
#	59760
#	82312
#	107485
#	126687
#	150850
#	168902
#	178395
#	190215
#	219922
#
# Disc length: 3156 seconds
#
# Revision: 0
# Processed by: cddbd v1.5.1PL0 Copyright (c) Steve Scherf et al.
# Submitted via: CDex 1.50
#
DISCID=a50c520b
DTITLE=Didgeridoo - Original Didgeridoo AUSTRALIA
DYEAR=1900
DGENRE=New Age
TTITLE0=Inapatua
TTITLE1=Numbakulla
TTITLE2=Kumbaka
TTITLE3=Yidaki
TTITLE4=Bushmans
TTITLE5=Dingo
TTITLE6=Wakadoo
TTITLE7=Churunga
TTITLE8=Milya
TTITLE9=Didgeridoo
TTITLE10=Wallabie Jump
EXTD=
EXTT0=
EXTT1=
EXTT2=
EXTT3=
EXTT4=
EXTT5=
EXTT6=
EXTT7=
EXTT8=
EXTT9=
EXTT10=
PLAYORDER=
